<mxfile host="Electron" modified="2024-06-24T13:23:01.421Z" agent="Mozilla/5.0 (Macintosh; Intel Mac OS X 10_15_7) AppleWebKit/537.36 (KHTML, like Gecko) draw.io/24.5.3 Chrome/124.0.6367.207 Electron/30.0.6 Safari/537.36" etag="euhj-ndxAW8J0dBJ0he6" version="24.5.3" type="device" pages="2">
  <diagram name="vpc-subnets" id="IG9uqQmUW1KT5N6DHHnJ">
    <mxGraphModel dx="1242" dy="907" grid="1" gridSize="10" guides="1" tooltips="1" connect="1" arrows="1" fold="1" page="1" pageScale="1" pageWidth="827" pageHeight="1169" math="0" shadow="0">
      <root>
        <mxCell id="0" />
        <mxCell id="1" parent="0" />
        <mxCell id="i2msSnN1HtvPyNxVhxLj-4" value="VPC" style="points=[[0,0],[0.25,0],[0.5,0],[0.75,0],[1,0],[1,0.25],[1,0.5],[1,0.75],[1,1],[0.75,1],[0.5,1],[0.25,1],[0,1],[0,0.75],[0,0.5],[0,0.25]];outlineConnect=0;gradientColor=none;html=1;whiteSpace=wrap;fontSize=12;fontStyle=0;container=1;pointerEvents=0;collapsible=0;recursiveResize=0;shape=mxgraph.aws4.group;grIcon=mxgraph.aws4.group_vpc2;strokeColor=#8C4FFF;fillColor=none;verticalAlign=top;align=left;spacingLeft=30;fontColor=#AAB7B8;dashed=0;" vertex="1" parent="1">
          <mxGeometry x="80" y="80" width="680" height="677" as="geometry" />
        </mxCell>
        <mxCell id="i2msSnN1HtvPyNxVhxLj-8" value="" style="rounded=1;arcSize=10;dashed=1;strokeWidth=2;" vertex="1" parent="i2msSnN1HtvPyNxVhxLj-4">
          <mxGeometry x="10" y="320" width="660" height="310" as="geometry" />
        </mxCell>
        <mxCell id="i2msSnN1HtvPyNxVhxLj-15" value="Public subnet" style="points=[[0,0],[0.25,0],[0.5,0],[0.75,0],[1,0],[1,0.25],[1,0.5],[1,0.75],[1,1],[0.75,1],[0.5,1],[0.25,1],[0,1],[0,0.75],[0,0.5],[0,0.25]];outlineConnect=0;gradientColor=none;html=1;whiteSpace=wrap;fontSize=12;fontStyle=0;container=1;pointerEvents=0;collapsible=0;recursiveResize=0;shape=mxgraph.aws4.group;grIcon=mxgraph.aws4.group_security_group;grStroke=0;strokeColor=#7AA116;fillColor=#F2F6E8;verticalAlign=top;align=left;spacingLeft=30;fontColor=#248814;dashed=0;" vertex="1" parent="i2msSnN1HtvPyNxVhxLj-4">
          <mxGeometry x="10" y="50" width="190" height="240" as="geometry" />
        </mxCell>
        <mxCell id="i2msSnN1HtvPyNxVhxLj-26" value="" style="outlineConnect=0;dashed=0;verticalLabelPosition=bottom;verticalAlign=top;align=center;html=1;shape=mxgraph.aws3.application_load_balancer;fillColor=#F58534;gradientColor=none;" vertex="1" parent="i2msSnN1HtvPyNxVhxLj-15">
          <mxGeometry x="70.5" y="80" width="69" height="72" as="geometry" />
        </mxCell>
        <mxCell id="i2msSnN1HtvPyNxVhxLj-37" value="public-1a" style="text;html=1;align=center;verticalAlign=middle;resizable=0;points=[];autosize=1;strokeColor=none;fillColor=none;" vertex="1" parent="i2msSnN1HtvPyNxVhxLj-15">
          <mxGeometry x="0.5" y="210" width="70" height="30" as="geometry" />
        </mxCell>
        <mxCell id="i2msSnN1HtvPyNxVhxLj-14" value="Private subnet" style="points=[[0,0],[0.25,0],[0.5,0],[0.75,0],[1,0],[1,0.25],[1,0.5],[1,0.75],[1,1],[0.75,1],[0.5,1],[0.25,1],[0,1],[0,0.75],[0,0.5],[0,0.25]];outlineConnect=0;gradientColor=none;html=1;whiteSpace=wrap;fontSize=12;fontStyle=0;container=1;pointerEvents=0;collapsible=0;recursiveResize=0;shape=mxgraph.aws4.group;grIcon=mxgraph.aws4.group_security_group;grStroke=0;strokeColor=#00A4A6;fillColor=#E6F6F7;verticalAlign=top;align=left;spacingLeft=30;fontColor=#147EBA;dashed=0;" vertex="1" parent="i2msSnN1HtvPyNxVhxLj-4">
          <mxGeometry x="20" y="340" width="190" height="250" as="geometry" />
        </mxCell>
        <mxCell id="i2msSnN1HtvPyNxVhxLj-22" value="Private subnet" style="points=[[0,0],[0.25,0],[0.5,0],[0.75,0],[1,0],[1,0.25],[1,0.5],[1,0.75],[1,1],[0.75,1],[0.5,1],[0.25,1],[0,1],[0,0.75],[0,0.5],[0,0.25]];outlineConnect=0;gradientColor=none;html=1;whiteSpace=wrap;fontSize=12;fontStyle=0;container=1;pointerEvents=0;collapsible=0;recursiveResize=0;shape=mxgraph.aws4.group;grIcon=mxgraph.aws4.group_security_group;grStroke=0;strokeColor=#00A4A6;fillColor=#E6F6F7;verticalAlign=top;align=left;spacingLeft=30;fontColor=#147EBA;dashed=0;" vertex="1" parent="i2msSnN1HtvPyNxVhxLj-4">
          <mxGeometry x="470" y="340" width="190" height="250" as="geometry" />
        </mxCell>
        <mxCell id="i2msSnN1HtvPyNxVhxLj-25" value="Amazon EKS" style="sketch=0;outlineConnect=0;fontColor=#232F3E;gradientColor=none;strokeColor=#ffffff;fillColor=#232F3E;dashed=0;verticalLabelPosition=middle;verticalAlign=bottom;align=center;html=1;whiteSpace=wrap;fontSize=10;fontStyle=1;spacing=3;shape=mxgraph.aws4.productIcon;prIcon=mxgraph.aws4.eks;" vertex="1" parent="i2msSnN1HtvPyNxVhxLj-22">
          <mxGeometry x="55" y="75" width="80" height="100" as="geometry" />
        </mxCell>
        <mxCell id="i2msSnN1HtvPyNxVhxLj-21" value="Private subnet" style="points=[[0,0],[0.25,0],[0.5,0],[0.75,0],[1,0],[1,0.25],[1,0.5],[1,0.75],[1,1],[0.75,1],[0.5,1],[0.25,1],[0,1],[0,0.75],[0,0.5],[0,0.25]];outlineConnect=0;gradientColor=none;html=1;whiteSpace=wrap;fontSize=12;fontStyle=0;container=1;pointerEvents=0;collapsible=0;recursiveResize=0;shape=mxgraph.aws4.group;grIcon=mxgraph.aws4.group_security_group;grStroke=0;strokeColor=#00A4A6;fillColor=#E6F6F7;verticalAlign=top;align=left;spacingLeft=30;fontColor=#147EBA;dashed=0;" vertex="1" parent="i2msSnN1HtvPyNxVhxLj-4">
          <mxGeometry x="240" y="340" width="190" height="250" as="geometry" />
        </mxCell>
        <mxCell id="i2msSnN1HtvPyNxVhxLj-23" value="Amazon EKS" style="sketch=0;outlineConnect=0;fontColor=#232F3E;gradientColor=none;strokeColor=#ffffff;fillColor=#232F3E;dashed=0;verticalLabelPosition=middle;verticalAlign=bottom;align=center;html=1;whiteSpace=wrap;fontSize=10;fontStyle=1;spacing=3;shape=mxgraph.aws4.productIcon;prIcon=mxgraph.aws4.eks;" vertex="1" parent="i2msSnN1HtvPyNxVhxLj-4">
          <mxGeometry x="75" y="415" width="80" height="100" as="geometry" />
        </mxCell>
        <mxCell id="i2msSnN1HtvPyNxVhxLj-24" value="Amazon EKS" style="sketch=0;outlineConnect=0;fontColor=#232F3E;gradientColor=none;strokeColor=#ffffff;fillColor=#232F3E;dashed=0;verticalLabelPosition=middle;verticalAlign=bottom;align=center;html=1;whiteSpace=wrap;fontSize=10;fontStyle=1;spacing=3;shape=mxgraph.aws4.productIcon;prIcon=mxgraph.aws4.eks;" vertex="1" parent="i2msSnN1HtvPyNxVhxLj-4">
          <mxGeometry x="300" y="415" width="80" height="100" as="geometry" />
        </mxCell>
        <mxCell id="i2msSnN1HtvPyNxVhxLj-30" value="Public subnet" style="points=[[0,0],[0.25,0],[0.5,0],[0.75,0],[1,0],[1,0.25],[1,0.5],[1,0.75],[1,1],[0.75,1],[0.5,1],[0.25,1],[0,1],[0,0.75],[0,0.5],[0,0.25]];outlineConnect=0;gradientColor=none;html=1;whiteSpace=wrap;fontSize=12;fontStyle=0;container=1;pointerEvents=0;collapsible=0;recursiveResize=0;shape=mxgraph.aws4.group;grIcon=mxgraph.aws4.group_security_group;grStroke=0;strokeColor=#7AA116;fillColor=#F2F6E8;verticalAlign=top;align=left;spacingLeft=30;fontColor=#248814;dashed=0;" vertex="1" parent="i2msSnN1HtvPyNxVhxLj-4">
          <mxGeometry x="465" y="50" width="200" height="240" as="geometry" />
        </mxCell>
        <mxCell id="i2msSnN1HtvPyNxVhxLj-31" value="" style="outlineConnect=0;dashed=0;verticalLabelPosition=bottom;verticalAlign=top;align=center;html=1;shape=mxgraph.aws3.application_load_balancer;fillColor=#F58534;gradientColor=none;" vertex="1" parent="i2msSnN1HtvPyNxVhxLj-30">
          <mxGeometry x="70.5" y="80" width="69" height="72" as="geometry" />
        </mxCell>
        <mxCell id="i2msSnN1HtvPyNxVhxLj-39" value="public-1b" style="text;html=1;align=center;verticalAlign=middle;resizable=0;points=[];autosize=1;strokeColor=none;fillColor=none;" vertex="1" parent="i2msSnN1HtvPyNxVhxLj-30">
          <mxGeometry y="210" width="70" height="30" as="geometry" />
        </mxCell>
        <mxCell id="i2msSnN1HtvPyNxVhxLj-28" value="Public subnet" style="points=[[0,0],[0.25,0],[0.5,0],[0.75,0],[1,0],[1,0.25],[1,0.5],[1,0.75],[1,1],[0.75,1],[0.5,1],[0.25,1],[0,1],[0,0.75],[0,0.5],[0,0.25]];outlineConnect=0;gradientColor=none;html=1;whiteSpace=wrap;fontSize=12;fontStyle=0;container=1;pointerEvents=0;collapsible=0;recursiveResize=0;shape=mxgraph.aws4.group;grIcon=mxgraph.aws4.group_security_group;grStroke=0;strokeColor=#7AA116;fillColor=#F2F6E8;verticalAlign=top;align=left;spacingLeft=30;fontColor=#248814;dashed=0;" vertex="1" parent="i2msSnN1HtvPyNxVhxLj-4">
          <mxGeometry x="240" y="50" width="200" height="240" as="geometry" />
        </mxCell>
        <mxCell id="i2msSnN1HtvPyNxVhxLj-29" value="" style="outlineConnect=0;dashed=0;verticalLabelPosition=bottom;verticalAlign=top;align=center;html=1;shape=mxgraph.aws3.application_load_balancer;fillColor=#F58534;gradientColor=none;" vertex="1" parent="i2msSnN1HtvPyNxVhxLj-28">
          <mxGeometry x="70.5" y="80" width="69" height="72" as="geometry" />
        </mxCell>
        <mxCell id="i2msSnN1HtvPyNxVhxLj-38" value="public-1b" style="text;html=1;align=center;verticalAlign=middle;resizable=0;points=[];autosize=1;strokeColor=none;fillColor=none;" vertex="1" parent="i2msSnN1HtvPyNxVhxLj-28">
          <mxGeometry y="210" width="70" height="30" as="geometry" />
        </mxCell>
        <mxCell id="i2msSnN1HtvPyNxVhxLj-32" value="EKS Cluster" style="text;html=1;align=center;verticalAlign=middle;resizable=0;points=[];autosize=1;strokeColor=none;fillColor=none;" vertex="1" parent="i2msSnN1HtvPyNxVhxLj-4">
          <mxGeometry x="550" y="600" width="90" height="30" as="geometry" />
        </mxCell>
        <mxCell id="i2msSnN1HtvPyNxVhxLj-34" value="private-1a" style="text;html=1;align=center;verticalAlign=middle;resizable=0;points=[];autosize=1;strokeColor=none;fillColor=none;" vertex="1" parent="i2msSnN1HtvPyNxVhxLj-4">
          <mxGeometry x="20" y="560" width="80" height="30" as="geometry" />
        </mxCell>
        <mxCell id="i2msSnN1HtvPyNxVhxLj-36" value="private-1b" style="text;html=1;align=center;verticalAlign=middle;resizable=0;points=[];autosize=1;strokeColor=none;fillColor=none;" vertex="1" parent="i2msSnN1HtvPyNxVhxLj-4">
          <mxGeometry x="240" y="560" width="80" height="30" as="geometry" />
        </mxCell>
        <mxCell id="i2msSnN1HtvPyNxVhxLj-35" value="private-1c" style="text;html=1;align=center;verticalAlign=middle;resizable=0;points=[];autosize=1;strokeColor=none;fillColor=none;" vertex="1" parent="i2msSnN1HtvPyNxVhxLj-4">
          <mxGeometry x="470" y="560" width="80" height="30" as="geometry" />
        </mxCell>
        <mxCell id="ntmG3g7_SPvg1HJSZAuQ-1" value="" style="outlineConnect=0;dashed=0;verticalLabelPosition=bottom;verticalAlign=top;align=center;html=1;shape=mxgraph.aws3.internet_gateway;fillColor=#F58534;gradientColor=none;" vertex="1" parent="i2msSnN1HtvPyNxVhxLj-4">
          <mxGeometry x="289" y="-40" width="69" height="72" as="geometry" />
        </mxCell>
        <mxCell id="ntmG3g7_SPvg1HJSZAuQ-2" value="" style="outlineConnect=0;dashed=0;verticalLabelPosition=bottom;verticalAlign=top;align=center;html=1;shape=mxgraph.aws3.vpc_nat_gateway;fillColor=#F58534;gradientColor=none;" vertex="1" parent="i2msSnN1HtvPyNxVhxLj-4">
          <mxGeometry x="289" y="600" width="69" height="72" as="geometry" />
        </mxCell>
        <mxCell id="ntmG3g7_SPvg1HJSZAuQ-8" value="Outbound via NAT gw&lt;div&gt;Connections to internet and other AWS services&lt;/div&gt;" style="text;html=1;align=center;verticalAlign=middle;resizable=0;points=[];autosize=1;strokeColor=none;fillColor=none;" vertex="1" parent="i2msSnN1HtvPyNxVhxLj-4">
          <mxGeometry x="30" y="637" width="280" height="40" as="geometry" />
        </mxCell>
        <mxCell id="i2msSnN1HtvPyNxVhxLj-33" value="Region eu-central-1" style="text;html=1;align=center;verticalAlign=middle;resizable=0;points=[];autosize=1;strokeColor=none;fillColor=none;" vertex="1" parent="1">
          <mxGeometry x="330" width="130" height="30" as="geometry" />
        </mxCell>
        <mxCell id="ntmG3g7_SPvg1HJSZAuQ-5" value="" style="shape=singleArrow;direction=south;whiteSpace=wrap;html=1;" vertex="1" parent="1">
          <mxGeometry x="390" y="752" width="30" height="48" as="geometry" />
        </mxCell>
        <mxCell id="ntmG3g7_SPvg1HJSZAuQ-6" value="" style="shape=singleArrow;direction=north;whiteSpace=wrap;html=1;" vertex="1" parent="1">
          <mxGeometry x="340" y="30" width="30" height="80" as="geometry" />
        </mxCell>
        <mxCell id="ntmG3g7_SPvg1HJSZAuQ-7" value="Outbound via igw" style="text;html=1;align=center;verticalAlign=middle;resizable=0;points=[];autosize=1;strokeColor=none;fillColor=none;" vertex="1" parent="1">
          <mxGeometry x="240" y="50" width="120" height="30" as="geometry" />
        </mxCell>
        <mxCell id="jAZz4NoXbT--DTFg4hKF-1" value="" style="ellipse;shape=cloud;whiteSpace=wrap;html=1;" vertex="1" parent="1">
          <mxGeometry x="335" y="810" width="120" height="80" as="geometry" />
        </mxCell>
      </root>
    </mxGraphModel>
  </diagram>
  <diagram id="bqRj-_UxYVP64iaVZfqq" name="nginx Logical Arch">
    <mxGraphModel dx="1242" dy="907" grid="1" gridSize="10" guides="1" tooltips="1" connect="1" arrows="1" fold="1" page="1" pageScale="1" pageWidth="827" pageHeight="1169" math="0" shadow="0">
      <root>
        <mxCell id="0" />
        <mxCell id="1" parent="0" />
        <mxCell id="YffhSMIsZcWhE3DcURRB-2" value="" style="strokeColor=#dddddd;shadow=1;strokeWidth=1;rounded=1;absoluteArcSize=1;arcSize=2;" vertex="1" parent="1">
          <mxGeometry x="20" y="530" width="776" height="570" as="geometry" />
        </mxCell>
        <mxCell id="YffhSMIsZcWhE3DcURRB-39" value="" style="rounded=1;whiteSpace=wrap;html=1;dashed=1;dashPattern=1 4;" vertex="1" parent="YffhSMIsZcWhE3DcURRB-2">
          <mxGeometry x="390.6595032414938" y="82.26662772117318" width="318.4501664541744" height="383.9109293654748" as="geometry" />
        </mxCell>
        <mxCell id="YffhSMIsZcWhE3DcURRB-37" value="" style="rounded=1;whiteSpace=wrap;html=1;dashed=1;dashPattern=1 4;" vertex="1" parent="YffhSMIsZcWhE3DcURRB-2">
          <mxGeometry x="48.65233779848967" y="82.26662772117318" width="318.4501664541744" height="383.9109293654748" as="geometry" />
        </mxCell>
        <mxCell id="YffhSMIsZcWhE3DcURRB-28" value="" style="rounded=0;whiteSpace=wrap;html=1;" vertex="1" parent="YffhSMIsZcWhE3DcURRB-2">
          <mxGeometry x="134.01" y="241.86" width="145.99" height="178.14" as="geometry" />
        </mxCell>
        <mxCell id="YffhSMIsZcWhE3DcURRB-3" value="Kubernetes" style="sketch=0;dashed=0;connectable=0;html=1;fillColor=#5184F3;strokeColor=none;shape=mxgraph.gcp2.kubernetes_logo;part=1;labelPosition=right;verticalLabelPosition=middle;align=left;verticalAlign=middle;spacingLeft=5;fontColor=#999999;fontSize=12;" vertex="1" parent="YffhSMIsZcWhE3DcURRB-2">
          <mxGeometry width="45" height="43.65" relative="1" as="geometry">
            <mxPoint x="5" y="7.675000000000001" as="offset" />
          </mxGeometry>
        </mxCell>
        <mxCell id="YffhSMIsZcWhE3DcURRB-12" value="" style="aspect=fixed;sketch=0;html=1;dashed=0;whitespace=wrap;verticalLabelPosition=bottom;verticalAlign=top;fillColor=#2875E2;strokeColor=#ffffff;points=[[0.005,0.63,0],[0.1,0.2,0],[0.9,0.2,0],[0.5,0,0],[0.995,0.63,0],[0.72,0.99,0],[0.5,1,0],[0.28,0.99,0]];shape=mxgraph.kubernetes.icon2;kubernetesLabel=1;prIcon=pod" vertex="1" parent="YffhSMIsZcWhE3DcURRB-2">
          <mxGeometry x="160.46" y="282.64" width="83.34" height="80" as="geometry" />
        </mxCell>
        <mxCell id="YffhSMIsZcWhE3DcURRB-30" value="" style="rounded=0;whiteSpace=wrap;html=1;" vertex="1" parent="YffhSMIsZcWhE3DcURRB-2">
          <mxGeometry x="486.57" y="241.85" width="143.43" height="178.15" as="geometry" />
        </mxCell>
        <mxCell id="YffhSMIsZcWhE3DcURRB-35" value="Node1" style="text;html=1;align=center;verticalAlign=middle;resizable=0;points=[];autosize=1;strokeColor=none;fillColor=none;" vertex="1" parent="YffhSMIsZcWhE3DcURRB-2">
          <mxGeometry x="183.80242027029922" y="444.4343233933086" width="60" height="30" as="geometry" />
        </mxCell>
        <mxCell id="YffhSMIsZcWhE3DcURRB-36" value="Node2" style="text;html=1;align=center;verticalAlign=middle;resizable=0;points=[];autosize=1;strokeColor=none;fillColor=none;" vertex="1" parent="YffhSMIsZcWhE3DcURRB-2">
          <mxGeometry x="519.9677011715821" y="448.3192122887683" width="60" height="30" as="geometry" />
        </mxCell>
        <mxCell id="YffhSMIsZcWhE3DcURRB-38" value="AZ-1a" style="text;html=1;align=center;verticalAlign=middle;resizable=0;points=[];autosize=1;strokeColor=none;fillColor=none;" vertex="1" parent="YffhSMIsZcWhE3DcURRB-2">
          <mxGeometry x="48.65890578531401" y="82.26662772117318" width="60" height="30" as="geometry" />
        </mxCell>
        <mxCell id="YffhSMIsZcWhE3DcURRB-40" value="AZ-1b" style="text;html=1;align=center;verticalAlign=middle;resizable=0;points=[];autosize=1;strokeColor=none;fillColor=none;" vertex="1" parent="YffhSMIsZcWhE3DcURRB-2">
          <mxGeometry x="400.6469633780525" y="82.26662772117318" width="60" height="30" as="geometry" />
        </mxCell>
        <mxCell id="zZALypF0spCQVrGyEelE-3" value="" style="shape=partialRectangle;whiteSpace=wrap;html=1;bottom=1;right=1;left=1;top=0;fillColor=none;routingCenterX=-0.5;direction=west;" vertex="1" parent="YffhSMIsZcWhE3DcURRB-2">
          <mxGeometry x="199.45" y="36.24" width="360.55" height="243.76" as="geometry" />
        </mxCell>
        <mxCell id="zZALypF0spCQVrGyEelE-5" style="edgeStyle=orthogonalEdgeStyle;rounded=0;orthogonalLoop=1;jettySize=auto;html=1;exitX=1;exitY=0;exitDx=0;exitDy=0;entryX=0.359;entryY=0.178;entryDx=0;entryDy=0;entryPerimeter=0;" edge="1" parent="YffhSMIsZcWhE3DcURRB-2" source="zZALypF0spCQVrGyEelE-3">
          <mxGeometry relative="1" as="geometry">
            <mxPoint x="199.99497354837308" y="289.9940625970223" as="targetPoint" />
          </mxGeometry>
        </mxCell>
        <mxCell id="zZALypF0spCQVrGyEelE-6" value="" style="image;sketch=0;aspect=fixed;html=1;points=[];align=center;fontSize=12;image=img/lib/mscae/Kubernetes_Services.svg;" vertex="1" parent="YffhSMIsZcWhE3DcURRB-2">
          <mxGeometry x="350.65" y="18" width="50" height="37" as="geometry" />
        </mxCell>
        <mxCell id="zZALypF0spCQVrGyEelE-7" value="k8s service" style="text;html=1;align=center;verticalAlign=middle;resizable=0;points=[];autosize=1;strokeColor=none;fillColor=none;" vertex="1" parent="YffhSMIsZcWhE3DcURRB-2">
          <mxGeometry x="335.65" y="50" width="80" height="30" as="geometry" />
        </mxCell>
        <mxCell id="zZALypF0spCQVrGyEelE-8" value="" style="aspect=fixed;sketch=0;html=1;dashed=0;whitespace=wrap;verticalLabelPosition=bottom;verticalAlign=top;fillColor=#2875E2;strokeColor=#ffffff;points=[[0.005,0.63,0],[0.1,0.2,0],[0.9,0.2,0],[0.5,0,0],[0.995,0.63,0],[0.72,0.99,0],[0.5,1,0],[0.28,0.99,0]];shape=mxgraph.kubernetes.icon2;kubernetesLabel=1;prIcon=pod" vertex="1" parent="YffhSMIsZcWhE3DcURRB-2">
          <mxGeometry x="519.97" y="270" width="83.34" height="80" as="geometry" />
        </mxCell>
        <mxCell id="zZALypF0spCQVrGyEelE-9" value="Nginx-sample-pod1" style="text;html=1;align=center;verticalAlign=middle;resizable=0;points=[];autosize=1;strokeColor=none;fillColor=none;" vertex="1" parent="YffhSMIsZcWhE3DcURRB-2">
          <mxGeometry x="142.88" y="360" width="130" height="30" as="geometry" />
        </mxCell>
        <mxCell id="zZALypF0spCQVrGyEelE-10" value="Nginx-sample-pod2" style="text;html=1;align=center;verticalAlign=middle;resizable=0;points=[];autosize=1;strokeColor=none;fillColor=none;" vertex="1" parent="YffhSMIsZcWhE3DcURRB-2">
          <mxGeometry x="489.69" y="360" width="130" height="30" as="geometry" />
        </mxCell>
        <mxCell id="YffhSMIsZcWhE3DcURRB-1" value="" style="shape=image;verticalLabelPosition=bottom;labelBackgroundColor=default;verticalAlign=top;aspect=fixed;imageAspect=0;image=https://www.densify.com/wp-content/uploads/article-k8s-capacity-loadbalancer-diagram.svg;" vertex="1" parent="1">
          <mxGeometry x="30" y="40" width="778.85" height="270" as="geometry" />
        </mxCell>
        <mxCell id="zZALypF0spCQVrGyEelE-1" value="" style="outlineConnect=0;dashed=0;verticalLabelPosition=bottom;verticalAlign=top;align=center;html=1;shape=mxgraph.aws3.application_load_balancer;fillColor=#93ADF5;gradientColor=none;" vertex="1" parent="1">
          <mxGeometry x="356" y="370" width="69" height="72" as="geometry" />
        </mxCell>
        <mxCell id="zZALypF0spCQVrGyEelE-2" value="" style="line;strokeWidth=2;direction=south;html=1;" vertex="1" parent="1">
          <mxGeometry x="385.5" y="440" width="10" height="100" as="geometry" />
        </mxCell>
        <mxCell id="zZALypF0spCQVrGyEelE-11" value="ALB" style="text;html=1;align=center;verticalAlign=middle;resizable=0;points=[];autosize=1;strokeColor=none;fillColor=none;" vertex="1" parent="1">
          <mxGeometry x="445" y="398" width="50" height="30" as="geometry" />
        </mxCell>
        <mxCell id="zZALypF0spCQVrGyEelE-13" value="" style="strokeColor=#dddddd;shadow=1;strokeWidth=1;rounded=1;absoluteArcSize=1;arcSize=2;movable=1;resizable=1;rotatable=1;deletable=1;editable=1;locked=0;connectable=1;" vertex="1" parent="1">
          <mxGeometry x="26" y="1230" width="776" height="570" as="geometry" />
        </mxCell>
        <mxCell id="zZALypF0spCQVrGyEelE-14" value="" style="rounded=1;whiteSpace=wrap;html=1;dashed=1;dashPattern=1 4;" vertex="1" parent="zZALypF0spCQVrGyEelE-13">
          <mxGeometry x="390.66" y="82.27" width="319.34" height="387.73" as="geometry" />
        </mxCell>
        <mxCell id="zZALypF0spCQVrGyEelE-15" value="" style="rounded=1;whiteSpace=wrap;html=1;dashed=1;dashPattern=1 4;" vertex="1" parent="zZALypF0spCQVrGyEelE-13">
          <mxGeometry x="48.65233779848967" y="82.26662772117318" width="318.4501664541744" height="383.9109293654748" as="geometry" />
        </mxCell>
        <mxCell id="zZALypF0spCQVrGyEelE-16" value="" style="rounded=0;whiteSpace=wrap;html=1;" vertex="1" parent="zZALypF0spCQVrGyEelE-13">
          <mxGeometry x="80" y="120" width="260" height="320" as="geometry" />
        </mxCell>
        <mxCell id="zZALypF0spCQVrGyEelE-17" value="Kubernetes" style="sketch=0;dashed=0;connectable=0;html=1;fillColor=#5184F3;strokeColor=none;shape=mxgraph.gcp2.kubernetes_logo;part=1;labelPosition=right;verticalLabelPosition=middle;align=left;verticalAlign=middle;spacingLeft=5;fontColor=#999999;fontSize=12;" vertex="1" parent="zZALypF0spCQVrGyEelE-13">
          <mxGeometry width="45" height="43.65" relative="1" as="geometry">
            <mxPoint x="5" y="7.675000000000001" as="offset" />
          </mxGeometry>
        </mxCell>
        <mxCell id="zZALypF0spCQVrGyEelE-19" value="" style="rounded=0;whiteSpace=wrap;html=1;" vertex="1" parent="zZALypF0spCQVrGyEelE-13">
          <mxGeometry x="440.65" y="261.85" width="143.43" height="88.15" as="geometry" />
        </mxCell>
        <mxCell id="zZALypF0spCQVrGyEelE-20" value="Node" style="text;html=1;align=center;verticalAlign=middle;resizable=0;points=[];autosize=1;strokeColor=none;fillColor=none;" vertex="1" parent="zZALypF0spCQVrGyEelE-13">
          <mxGeometry x="188.80242027029922" y="444.4343233933086" width="50" height="30" as="geometry" />
        </mxCell>
        <mxCell id="zZALypF0spCQVrGyEelE-21" value="Node" style="text;html=1;align=center;verticalAlign=middle;resizable=0;points=[];autosize=1;strokeColor=none;fillColor=none;" vertex="1" parent="zZALypF0spCQVrGyEelE-13">
          <mxGeometry x="524.9677011715821" y="448.3192122887683" width="50" height="30" as="geometry" />
        </mxCell>
        <mxCell id="zZALypF0spCQVrGyEelE-22" value="kube-system namespace" style="text;html=1;align=center;verticalAlign=middle;resizable=0;points=[];autosize=1;strokeColor=none;fillColor=none;" vertex="1" parent="zZALypF0spCQVrGyEelE-13">
          <mxGeometry x="119.99890578531401" y="79.99662772117318" width="160" height="30" as="geometry" />
        </mxCell>
        <mxCell id="zZALypF0spCQVrGyEelE-23" value="Staging Namespace" style="text;html=1;align=center;verticalAlign=middle;resizable=0;points=[];autosize=1;strokeColor=none;fillColor=none;" vertex="1" parent="zZALypF0spCQVrGyEelE-13">
          <mxGeometry x="484.96696337805247" y="82.26662772117318" width="130" height="30" as="geometry" />
        </mxCell>
        <mxCell id="zZALypF0spCQVrGyEelE-27" value="Nodes in Single AZ" style="text;html=1;align=center;verticalAlign=middle;resizable=0;points=[];autosize=1;strokeColor=none;fillColor=none;" vertex="1" parent="zZALypF0spCQVrGyEelE-13">
          <mxGeometry x="310.65" y="50" width="130" height="30" as="geometry" />
        </mxCell>
        <mxCell id="zZALypF0spCQVrGyEelE-28" value="" style="aspect=fixed;sketch=0;html=1;dashed=0;whitespace=wrap;verticalLabelPosition=bottom;verticalAlign=top;fillColor=#2875E2;strokeColor=#ffffff;points=[[0.005,0.63,0],[0.1,0.2,0],[0.9,0.2,0],[0.5,0,0],[0.995,0.63,0],[0.72,0.99,0],[0.5,1,0],[0.28,0.99,0]];shape=mxgraph.kubernetes.icon2;kubernetesLabel=1;prIcon=pod" vertex="1" parent="zZALypF0spCQVrGyEelE-13">
          <mxGeometry x="454" y="280.92" width="52.09" height="50" as="geometry" />
        </mxCell>
        <mxCell id="zZALypF0spCQVrGyEelE-30" value="Nginx-sample-pod2" style="text;html=1;align=center;verticalAlign=middle;resizable=0;points=[];autosize=1;strokeColor=none;fillColor=none;" vertex="1" parent="zZALypF0spCQVrGyEelE-13">
          <mxGeometry x="454" y="259.22" width="130" height="30" as="geometry" />
        </mxCell>
        <mxCell id="zZALypF0spCQVrGyEelE-31" value="" style="rounded=1;whiteSpace=wrap;html=1;" vertex="1" parent="zZALypF0spCQVrGyEelE-13">
          <mxGeometry x="104" y="150" width="126" height="50" as="geometry" />
        </mxCell>
        <mxCell id="zZALypF0spCQVrGyEelE-18" value="" style="aspect=fixed;sketch=0;html=1;dashed=0;whitespace=wrap;verticalLabelPosition=bottom;verticalAlign=top;fillColor=#2875E2;strokeColor=#ffffff;points=[[0.005,0.63,0],[0.1,0.2,0],[0.9,0.2,0],[0.5,0,0],[0.995,0.63,0],[0.72,0.99,0],[0.5,1,0],[0.28,0.99,0]];shape=mxgraph.kubernetes.icon2;kubernetesLabel=1;prIcon=pod" vertex="1" parent="zZALypF0spCQVrGyEelE-13">
          <mxGeometry x="114" y="150" width="49.34" height="47.36" as="geometry" />
        </mxCell>
        <mxCell id="zZALypF0spCQVrGyEelE-36" value="" style="rounded=1;whiteSpace=wrap;html=1;" vertex="1" parent="zZALypF0spCQVrGyEelE-13">
          <mxGeometry x="104" y="249.22" width="126" height="50" as="geometry" />
        </mxCell>
        <mxCell id="zZALypF0spCQVrGyEelE-34" value="" style="aspect=fixed;sketch=0;html=1;dashed=0;whitespace=wrap;verticalLabelPosition=bottom;verticalAlign=top;fillColor=#2875E2;strokeColor=#ffffff;points=[[0.005,0.63,0],[0.1,0.2,0],[0.9,0.2,0],[0.5,0,0],[0.995,0.63,0],[0.72,0.99,0],[0.5,1,0],[0.28,0.99,0]];shape=mxgraph.kubernetes.icon2;kubernetesLabel=1;prIcon=pod" vertex="1" parent="zZALypF0spCQVrGyEelE-13">
          <mxGeometry x="114" y="250.53999999999994" width="49.34" height="47.36" as="geometry" />
        </mxCell>
        <mxCell id="zZALypF0spCQVrGyEelE-35" value="" style="rounded=1;whiteSpace=wrap;html=1;" vertex="1" parent="zZALypF0spCQVrGyEelE-13">
          <mxGeometry x="104" y="350" width="126" height="50" as="geometry" />
        </mxCell>
        <mxCell id="zZALypF0spCQVrGyEelE-33" value="" style="aspect=fixed;sketch=0;html=1;dashed=0;whitespace=wrap;verticalLabelPosition=bottom;verticalAlign=top;fillColor=#2875E2;strokeColor=#ffffff;points=[[0.005,0.63,0],[0.1,0.2,0],[0.9,0.2,0],[0.5,0,0],[0.995,0.63,0],[0.72,0.99,0],[0.5,1,0],[0.28,0.99,0]];shape=mxgraph.kubernetes.icon2;kubernetesLabel=1;prIcon=pod" vertex="1" parent="zZALypF0spCQVrGyEelE-13">
          <mxGeometry x="114" y="349.99999999999994" width="49.34" height="47.36" as="geometry" />
        </mxCell>
        <mxCell id="zZALypF0spCQVrGyEelE-37" value="metrics-server" style="text;html=1;align=center;verticalAlign=middle;resizable=0;points=[];autosize=1;strokeColor=none;fillColor=none;" vertex="1" parent="zZALypF0spCQVrGyEelE-13">
          <mxGeometry x="150" y="265" width="100" height="30" as="geometry" />
        </mxCell>
        <mxCell id="zZALypF0spCQVrGyEelE-38" value="coredns" style="text;html=1;align=center;verticalAlign=middle;resizable=0;points=[];autosize=1;strokeColor=none;fillColor=none;" vertex="1" parent="zZALypF0spCQVrGyEelE-13">
          <mxGeometry x="160" y="158.68000000000006" width="70" height="30" as="geometry" />
        </mxCell>
        <mxCell id="zZALypF0spCQVrGyEelE-39" value="ALB controller" style="text;html=1;align=center;verticalAlign=middle;resizable=0;points=[];autosize=1;strokeColor=none;fillColor=none;" vertex="1" parent="zZALypF0spCQVrGyEelE-13">
          <mxGeometry x="150" y="360" width="100" height="30" as="geometry" />
        </mxCell>
        <mxCell id="zZALypF0spCQVrGyEelE-41" value="" style="rounded=1;whiteSpace=wrap;html=1;" vertex="1" parent="zZALypF0spCQVrGyEelE-13">
          <mxGeometry x="440.65000000000003" y="130" width="126" height="50" as="geometry" />
        </mxCell>
        <mxCell id="zZALypF0spCQVrGyEelE-40" value="" style="aspect=fixed;sketch=0;html=1;dashed=0;whitespace=wrap;verticalLabelPosition=bottom;verticalAlign=top;fillColor=#2875E2;strokeColor=#ffffff;points=[[0.005,0.63,0],[0.1,0.2,0],[0.9,0.2,0],[0.5,0,0],[0.995,0.63,0],[0.72,0.99,0],[0.5,1,0],[0.28,0.99,0]];shape=mxgraph.kubernetes.icon2;kubernetesLabel=1;prIcon=pod" vertex="1" parent="zZALypF0spCQVrGyEelE-13">
          <mxGeometry x="453.99999999999994" y="132.63999999999993" width="49.34" height="47.36" as="geometry" />
        </mxCell>
        <mxCell id="zZALypF0spCQVrGyEelE-42" value="busybox-loadtest" style="text;html=1;align=center;verticalAlign=middle;resizable=0;points=[];autosize=1;strokeColor=none;fillColor=none;" vertex="1" parent="zZALypF0spCQVrGyEelE-13">
          <mxGeometry x="503.34000000000003" y="141.32" width="110" height="30" as="geometry" />
        </mxCell>
        <mxCell id="zZALypF0spCQVrGyEelE-43" value="FARGATE Spins up and manages the nodes" style="text;html=1;align=center;verticalAlign=middle;resizable=0;points=[];autosize=1;strokeColor=none;fillColor=none;" vertex="1" parent="1">
          <mxGeometry x="300" y="1180" width="260" height="30" as="geometry" />
        </mxCell>
        <mxCell id="zZALypF0spCQVrGyEelE-44" value="" style="endArrow=classic;html=1;rounded=0;entryX=0.85;entryY=-0.033;entryDx=0;entryDy=0;entryPerimeter=0;" edge="1" parent="1" source="zZALypF0spCQVrGyEelE-43" target="zZALypF0spCQVrGyEelE-22">
          <mxGeometry width="50" height="50" relative="1" as="geometry">
            <mxPoint x="380" y="1400" as="sourcePoint" />
            <mxPoint x="430" y="1350" as="targetPoint" />
          </mxGeometry>
        </mxCell>
        <mxCell id="zZALypF0spCQVrGyEelE-45" value="" style="endArrow=classic;html=1;rounded=0;entryX=0.239;entryY=-0.009;entryDx=0;entryDy=0;entryPerimeter=0;" edge="1" parent="1" source="zZALypF0spCQVrGyEelE-43" target="zZALypF0spCQVrGyEelE-23">
          <mxGeometry width="50" height="50" relative="1" as="geometry">
            <mxPoint x="421" y="1220" as="sourcePoint" />
            <mxPoint x="292" y="1319" as="targetPoint" />
          </mxGeometry>
        </mxCell>
        <mxCell id="RTHgah4F03X9tpz2kqSt-1" value="Fig 1 - Simple" style="text;html=1;align=center;verticalAlign=middle;resizable=0;points=[];autosize=1;strokeColor=#b46504;fillColor=#fad7ac;" vertex="1" parent="1">
          <mxGeometry x="345" width="100" height="30" as="geometry" />
        </mxCell>
        <mxCell id="RTHgah4F03X9tpz2kqSt-2" value="Fig 2 - Application" style="text;html=1;align=center;verticalAlign=middle;resizable=0;points=[];autosize=1;strokeColor=#b46504;fillColor=#fad7ac;" vertex="1" parent="1">
          <mxGeometry x="330" y="330" width="120" height="30" as="geometry" />
        </mxCell>
        <mxCell id="RTHgah4F03X9tpz2kqSt-3" value="Fig 3 Types of Nodes in this cluster" style="text;html=1;align=center;verticalAlign=middle;resizable=0;points=[];autosize=1;strokeColor=#b46504;fillColor=#fad7ac;" vertex="1" parent="1">
          <mxGeometry x="314.42" y="1130" width="210" height="30" as="geometry" />
        </mxCell>
      </root>
    </mxGraphModel>
  </diagram>
</mxfile>
